<?xml version="1.0" encoding="UTF-8" standalone="no"?>
<svg
   width="16"
   height="13.00069"
   fill="currentColor"
   class="bi bi-twitter"
   viewBox="0 0 16 13.000689"
   version="1.1"
   id="svg1"
   xmlns="http://www.w3.org/2000/svg"
   xmlns:svg="http://www.w3.org/2000/svg">
  <defs
     id="defs1" />
  <path
     d="m 5.026,13.000689 c 6.038,0 9.341,-5.0030004 9.341,-9.3340004 q 0.002,-0.211 -0.006,-0.422 a 6.7,6.7 0 0 0 1.639,-1.702 6.7,6.7 0 0 1 -1.889,0.518 3.3,3.3 0 0 0 1.447,-1.81699997 6.5,6.5 0 0 1 -2.087,0.79299997 3.286,3.286 0 0 0 -5.596,2.994 9.32,9.32 0 0 1 -6.767,-3.42899997 3.29,3.29 0 0 0 1.018,4.38199997 3.3,3.3 0 0 1 -1.486,-0.408 v 0.045 a 3.29,3.29 0 0 0 2.632,3.218 3.2,3.2 0 0 1 -0.865,0.115 3,3 0 0 1 -0.614,-0.057 3.28,3.28 0 0 0 3.067,2.2770004 6.6,6.6 0 0 1 -4.08,1.407 6,6 0 0 1 -0.78,-0.045 9.34,9.34 0 0 0 5.026,1.465"
     id="path1"
     style="fill:#000000;fill-opacity:1" />
</svg>
