<?xml version="1.0" encoding="UTF-8" standalone="no"?>
<svg
   width="15.999"
   height="11.239"
   fill="currentColor"
   class="bi bi-youtube"
   viewBox="0 0 15.999 11.239"
   version="1.1"
   id="svg1"
   xmlns="http://www.w3.org/2000/svg"
   xmlns:svg="http://www.w3.org/2000/svg">
  <defs
     id="defs1" />
  <path
     d="M 8.051,0 H 8.14 c 0.822,0.003 4.987,0.033 6.11,0.335 a 2.01,2.01 0 0 1 1.415,1.4199999 c 0.101,0.38 0.172,0.883 0.22,1.402 l 0.01,0.104 0.022,0.26 0.008,0.104 c 0.065,0.914 0.073,1.77 0.074,1.957 v 0.075 c -0.001,0.194 -0.01,1.108 -0.082,2.06 l -0.008,0.105 -0.009,0.104 c -0.05,0.572 -0.124,1.14 -0.235,1.558 A 2.01,2.01 0 0 1 14.25,10.904 c -1.16,0.312 -5.569,0.334 -6.18,0.335 H 7.928 c -0.309,0 -1.587,-0.006 -2.927,-0.052 L 4.831,11.181 4.744,11.177 4.573,11.17 4.402,11.163 C 3.292,11.114 2.235,11.035 1.748,10.903 A 2.01,2.01 0 0 1 0.333,9.4839999 c -0.111,-0.417 -0.185,-0.986 -0.235,-1.558 l -0.008,-0.105 -0.008,-0.104 A 31,31 0 0 1 0,5.6809999 v -0.123 c 0.002,-0.215 0.01,-0.958 0.064,-1.778 l 0.007,-0.103 0.003,-0.052 0.008,-0.104 0.022,-0.26 0.01,-0.104 c 0.048,-0.519 0.119,-1.023 0.22,-1.402 A 2.01,2.01 0 0 1 1.749,0.335 C 2.236,0.205 3.293,0.125 4.403,0.075 L 4.573,0.068 4.745,0.062 4.831,0.059 5.002,0.052 A 100,100 0 0 1 7.858,0.001 Z M 6.4,3.2099999 v 4.818 l 4.157,-2.408 z"
     id="path1"
     style="fill:#000000;fill-opacity:1" />
</svg>
