<?xml version="1.0" encoding="UTF-8" standalone="no"?>
<svg
   width="16.000168"
   height="12.196012"
   fill="currentColor"
   class="bi bi-discord"
   viewBox="0 0 16.000168 12.196013"
   version="1.1"
   id="svg1"
   xmlns:xlink="http://www.w3.org/1999/xlink"
   xmlns="http://www.w3.org/2000/svg"
   xmlns:svg="http://www.w3.org/2000/svg">
  <defs
     id="defs1">
    <linearGradient
       id="swatch1">
      <stop
         style="stop-color:#000000;stop-opacity:1;"
         offset="0"
         id="stop1" />
    </linearGradient>
    <linearGradient
       xlink:href="#swatch1"
       id="linearGradient1"
       x1="-0.00016890305"
       y1="7.9933114"
       x2="15.999999"
       y2="7.9933114"
       gradientUnits="userSpaceOnUse"
       gradientTransform="translate(1.6890609e-4,-1.8953054)" />
  </defs>
  <path
     d="m 13.545169,1.0116946 a 13.2,13.2 0 0 0 -3.257,-1.01100003159 0.05,0.05 0 0 0 -0.052,0.0249999916 c -0.141,0.25 -0.2970001,0.577 -0.4060001,0.833 a 12.2,12.2 0 0 0 -3.658,0 8,8 0 0 0 -0.412,-0.833 0.05,0.05 0 0 0 -0.052,-0.0249999916 c -1.125,0.19399999159 -2.22,0.53399999159 -3.257,1.01100003159 a 0.04,0.04 0 0 0 -0.021,0.018 c -2.074,3.099 -2.643,6.122 -2.364,9.1070004 q 0.003,0.022 0.021,0.037 a 13.3,13.3 0 0 0 3.995,2.02 0.05,0.05 0 0 0 0.056,-0.019 q 0.463,-0.63 0.818,-1.329 a 0.05,0.05 0 0 0 -0.01,-0.059 l -0.018,-0.011 a 9,9 0 0 1 -1.248,-0.595 0.05,0.05 0 0 1 -0.02,-0.066 l 0.015,-0.019 q 0.127,-0.095 0.248,-0.1950004 a 0.05,0.05 0 0 1 0.051,-0.007 c 2.619,1.1960004 5.454,1.1960004 8.0410001,0 a 0.05,0.05 0 0 1 0.053,0.007 q 0.121,0.1000004 0.248,0.1950004 a 0.05,0.05 0 0 1 -0.004,0.085 8,8 0 0 1 -1.249,0.594 0.05,0.05 0 0 0 -0.03,0.03 0.05,0.05 0 0 0 0.003,0.041 c 0.24,0.465 0.515,0.909 0.817,1.329 a 0.05,0.05 0 0 0 0.056,0.019 13.2,13.2 0 0 0 4.001,-2.02 0.05,0.05 0 0 0 0.021,-0.037 c 0.334,-3.4510004 -0.559,-6.4490004 -2.366,-9.1060004 a 0.03,0.03 0 0 0 -0.02,-0.019 m -8.1980001,7.307 c -0.789,0 -1.438,-0.724 -1.438,-1.612 0,-0.888 0.637,-1.613 1.438,-1.613 0.807,0 1.45,0.73 1.438,1.613 0,0.888 -0.637,1.612 -1.438,1.612 m 5.3160001,0 c -0.7880001,0 -1.4380001,-0.724 -1.4380001,-1.612 0,-0.888 0.637,-1.613 1.4380001,-1.613 0.807,0 1.451,0.73 1.438,1.613 0,0.888 -0.631,1.612 -1.438,1.612"
     id="path1"
     style="fill:url(#linearGradient1)" />
</svg>
