<?xml version="1.0" encoding="UTF-8" standalone="no"?>
<!-- Created with Inkscape (http://www.inkscape.org/) -->

<svg
   width="7.8548903mm"
   height="80.512894mm"
   viewBox="0 0 7.8548904 80.512893"
   version="1.1"
   id="svg1"
   xmlns="http://www.w3.org/2000/svg"
   xmlns:svg="http://www.w3.org/2000/svg">
  <defs
     id="defs1" />
  <g
     id="layer1"
     transform="translate(-10.798199,-2.8739405)">
    <g
       id="g1"
       transform="translate(4.7374233,-3.5530675)">
      <g
         id="g15">
        <path
           id="path3"
           style="font-size:11.2889px;line-height:2.2;font-family:'Aldo the Apache';-inkscape-font-specification:'Aldo the Apache';fill:#ffffff;fill-opacity:1;stroke-width:0.396875;stroke-linecap:round;stroke-linejoin:bevel;stroke-opacity:0.0703259"
           d="m 6.0607756,40.489654 4.0986284,9.290048 3.756262,-9.290048 H 12.5432 l -2.383796,6.192502 -2.5843771,-6.192502 z" />
        <path
           id="path4"
           style="font-size:11.2889px;line-height:2.2;font-family:'Aldo the Apache';-inkscape-font-specification:'Aldo the Apache';fill:#000000;fill-opacity:1;stroke-width:0.396875;stroke-linecap:round;stroke-linejoin:bevel;stroke-opacity:0.0703259"
           d="m 6.0607756,37.392108 4.0986284,9.290048 3.756262,-9.290048 H 12.5432 L 10.159404,43.58461 7.5750269,37.392108 Z" />
        <path
           id="path5"
           style="font-size:11.2889px;line-height:2.2;font-family:'Aldo the Apache';-inkscape-font-specification:'Aldo the Apache';fill:#ffffff;fill-opacity:1;stroke-width:0.396875;stroke-linecap:round;stroke-linejoin:bevel;stroke-opacity:0.0703259"
           d="M 6.0607756,34.297152 10.159404,43.5872 13.915666,34.297152 H 12.5432 l -2.383796,6.192502 -2.5843771,-6.192502 z" />
        <path
           id="path6"
           style="font-size:11.2889px;line-height:2.2;font-family:'Aldo the Apache';-inkscape-font-specification:'Aldo the Apache';fill:#000000;fill-opacity:1;stroke-width:0.396875;stroke-linecap:round;stroke-linejoin:bevel;stroke-opacity:0.0703259"
           d="m 6.0607756,31.202196 4.0986284,9.290048 3.756262,-9.290048 H 12.5432 l -2.383796,6.192502 -2.5843771,-6.192502 z" />
        <path
           id="path7"
           style="font-size:11.2889px;line-height:2.2;font-family:'Aldo the Apache';-inkscape-font-specification:'Aldo the Apache';fill:#ffffff;fill-opacity:1;stroke-width:0.396875;stroke-linecap:round;stroke-linejoin:bevel;stroke-opacity:0.0703259"
           d="m 6.0607756,28.10465 4.0986284,9.290048 3.756262,-9.290048 H 12.5432 L 10.159404,34.297152 7.5750269,28.10465 Z" />
        <path
           id="path8"
           style="font-size:11.2889px;line-height:2.2;font-family:'Aldo the Apache';-inkscape-font-specification:'Aldo the Apache';fill:#000000;fill-opacity:1;stroke-width:0.396875;stroke-linecap:round;stroke-linejoin:bevel;stroke-opacity:0.0703259"
           d="m 6.0607756,25.007104 4.0986284,9.290048 3.756262,-9.290048 H 12.5432 l -2.383796,6.192502 -2.5843771,-6.192502 z" />
        <path
           id="path9"
           style="font-size:11.2889px;line-height:2.2;font-family:'Aldo the Apache';-inkscape-font-specification:'Aldo the Apache';fill:#ffffff;fill-opacity:1;stroke-width:0.396875;stroke-linecap:round;stroke-linejoin:bevel;stroke-opacity:0.0703259"
           d="m 6.0607756,21.912148 4.0986284,9.290048 3.756262,-9.290048 H 12.5432 L 10.159404,28.10465 7.5750269,21.912148 Z" />
        <path
           id="path10"
           style="font-size:11.2889px;line-height:2.2;font-family:'Aldo the Apache';-inkscape-font-specification:'Aldo the Apache';fill:#000000;fill-opacity:1;stroke-width:0.396875;stroke-linecap:round;stroke-linejoin:bevel;stroke-opacity:0.0703259"
           d="m 6.0607756,18.814602 4.0986284,9.290048 3.756262,-9.290048 H 12.5432 l -2.383796,6.192502 -2.5843771,-6.192502 z" />
        <path
           id="path12"
           style="font-size:11.2889px;line-height:2.2;font-family:'Aldo the Apache';-inkscape-font-specification:'Aldo the Apache';fill:#ffffff;fill-opacity:1;stroke-width:0.396875;stroke-linecap:round;stroke-linejoin:bevel;stroke-opacity:0.0703259"
           d="m 6.0607756,15.717056 4.0986284,9.290048 3.756262,-9.290048 H 12.5432 l -2.383796,6.192502 -2.5843771,-6.192502 z" />
        <path
           id="path13"
           style="font-size:11.2889px;line-height:2.2;font-family:'Aldo the Apache';-inkscape-font-specification:'Aldo the Apache';fill:#000000;fill-opacity:1;stroke-width:0.396875;stroke-linecap:round;stroke-linejoin:bevel;stroke-opacity:0.0703259"
           d="M 6.0607756,12.6221 10.159404,21.912148 13.915666,12.6221 H 12.5432 L 10.159404,18.814602 7.5750269,12.6221 Z" />
        <path
           id="path14"
           style="font-size:11.2889px;line-height:2.2;font-family:'Aldo the Apache';-inkscape-font-specification:'Aldo the Apache';fill:#ffffff;fill-opacity:1;stroke-width:0.396875;stroke-linecap:round;stroke-linejoin:bevel;stroke-opacity:0.0703259"
           d="m 6.0607756,9.524554 4.0986284,9.290048 3.756262,-9.290048 H 12.5432 L 10.159404,15.717056 7.5750269,9.524554 Z" />
        <path
           id="path15"
           style="font-size:11.2889px;line-height:2.2;font-family:'Aldo the Apache';-inkscape-font-specification:'Aldo the Apache';fill:#000000;fill-opacity:1;stroke-width:0.396875;stroke-linecap:round;stroke-linejoin:bevel;stroke-opacity:0.0703259"
           d="m 6.0607756,6.427008 4.0986284,9.290048 3.756262,-9.290048 H 12.5432 L 10.159404,12.61951 7.5750269,6.427008 Z" />
      </g>
    </g>
  </g>
  <g
     id="g26"
     transform="translate(-10.798199,34.286253)">
    <g
       id="g25"
       transform="translate(4.7374233,-3.5530675)">
      <g
         id="g24">
        <path
           id="path1"
           style="font-size:11.2889px;line-height:2.2;font-family:'Aldo the Apache';-inkscape-font-specification:'Aldo the Apache';fill:#ffffff;fill-opacity:1;stroke-width:0.396875;stroke-linecap:round;stroke-linejoin:bevel;stroke-opacity:0.0703259"
           d="m 6.0607756,40.489654 4.0986284,9.290048 3.756262,-9.290048 H 12.5432 l -2.383796,6.192502 -2.5843771,-6.192502 z" />
        <path
           id="path2"
           style="font-size:11.2889px;line-height:2.2;font-family:'Aldo the Apache';-inkscape-font-specification:'Aldo the Apache';fill:#000000;fill-opacity:1;stroke-width:0.396875;stroke-linecap:round;stroke-linejoin:bevel;stroke-opacity:0.0703259"
           d="m 6.0607756,37.392108 4.0986284,9.290048 3.756262,-9.290048 H 12.5432 L 10.159404,43.58461 7.5750269,37.392108 Z" />
        <path
           id="path11"
           style="font-size:11.2889px;line-height:2.2;font-family:'Aldo the Apache';-inkscape-font-specification:'Aldo the Apache';fill:#ffffff;fill-opacity:1;stroke-width:0.396875;stroke-linecap:round;stroke-linejoin:bevel;stroke-opacity:0.0703259"
           d="M 6.0607756,34.297152 10.159404,43.5872 13.915666,34.297152 H 12.5432 l -2.383796,6.192502 -2.5843771,-6.192502 z" />
        <path
           id="path16"
           style="font-size:11.2889px;line-height:2.2;font-family:'Aldo the Apache';-inkscape-font-specification:'Aldo the Apache';fill:#000000;fill-opacity:1;stroke-width:0.396875;stroke-linecap:round;stroke-linejoin:bevel;stroke-opacity:0.0703259"
           d="m 6.0607756,31.202196 4.0986284,9.290048 3.756262,-9.290048 H 12.5432 l -2.383796,6.192502 -2.5843771,-6.192502 z" />
        <path
           id="path17"
           style="font-size:11.2889px;line-height:2.2;font-family:'Aldo the Apache';-inkscape-font-specification:'Aldo the Apache';fill:#ffffff;fill-opacity:1;stroke-width:0.396875;stroke-linecap:round;stroke-linejoin:bevel;stroke-opacity:0.0703259"
           d="m 6.0607756,28.10465 4.0986284,9.290048 3.756262,-9.290048 H 12.5432 L 10.159404,34.297152 7.5750269,28.10465 Z" />
        <path
           id="path18"
           style="font-size:11.2889px;line-height:2.2;font-family:'Aldo the Apache';-inkscape-font-specification:'Aldo the Apache';fill:#000000;fill-opacity:1;stroke-width:0.396875;stroke-linecap:round;stroke-linejoin:bevel;stroke-opacity:0.0703259"
           d="m 6.0607756,25.007104 4.0986284,9.290048 3.756262,-9.290048 H 12.5432 l -2.383796,6.192502 -2.5843771,-6.192502 z" />
        <path
           id="path19"
           style="font-size:11.2889px;line-height:2.2;font-family:'Aldo the Apache';-inkscape-font-specification:'Aldo the Apache';fill:#ffffff;fill-opacity:1;stroke-width:0.396875;stroke-linecap:round;stroke-linejoin:bevel;stroke-opacity:0.0703259"
           d="m 6.0607756,21.912148 4.0986284,9.290048 3.756262,-9.290048 H 12.5432 L 10.159404,28.10465 7.5750269,21.912148 Z" />
        <path
           id="path20"
           style="font-size:11.2889px;line-height:2.2;font-family:'Aldo the Apache';-inkscape-font-specification:'Aldo the Apache';fill:#000000;fill-opacity:1;stroke-width:0.396875;stroke-linecap:round;stroke-linejoin:bevel;stroke-opacity:0.0703259"
           d="m 6.0607756,18.814602 4.0986284,9.290048 3.756262,-9.290048 H 12.5432 l -2.383796,6.192502 -2.5843771,-6.192502 z" />
        <path
           id="path21"
           style="font-size:11.2889px;line-height:2.2;font-family:'Aldo the Apache';-inkscape-font-specification:'Aldo the Apache';fill:#ffffff;fill-opacity:1;stroke-width:0.396875;stroke-linecap:round;stroke-linejoin:bevel;stroke-opacity:0.0703259"
           d="m 6.0607756,15.717056 4.0986284,9.290048 3.756262,-9.290048 H 12.5432 l -2.383796,6.192502 -2.5843771,-6.192502 z" />
        <path
           id="path22"
           style="font-size:11.2889px;line-height:2.2;font-family:'Aldo the Apache';-inkscape-font-specification:'Aldo the Apache';fill:#000000;fill-opacity:1;stroke-width:0.396875;stroke-linecap:round;stroke-linejoin:bevel;stroke-opacity:0.0703259"
           d="M 6.0607756,12.6221 10.159404,21.912148 13.915666,12.6221 H 12.5432 L 10.159404,18.814602 7.5750269,12.6221 Z" />
        <path
           id="path23"
           style="font-size:11.2889px;line-height:2.2;font-family:'Aldo the Apache';-inkscape-font-specification:'Aldo the Apache';fill:#ffffff;fill-opacity:1;stroke-width:0.396875;stroke-linecap:round;stroke-linejoin:bevel;stroke-opacity:0.0703259"
           d="m 6.0607756,9.524554 4.0986284,9.290048 3.756262,-9.290048 H 12.5432 L 10.159404,15.717056 7.5750269,9.524554 Z" />
        <path
           id="path24"
           style="font-size:11.2889px;line-height:2.2;font-family:'Aldo the Apache';-inkscape-font-specification:'Aldo the Apache';fill:#000000;fill-opacity:1;stroke-width:0.396875;stroke-linecap:round;stroke-linejoin:bevel;stroke-opacity:0.0703259"
           d="m 6.0607756,6.427008 4.0986284,9.290048 3.756262,-9.290048 H 12.5432 L 10.159404,12.61951 7.5750269,6.427008 Z" />
      </g>
    </g>
  </g>
</svg>
